<svg width="16" height="12" viewBox="0 0 24 18" fill="none" xmlns="http://www.w3.org/2000/svg">
<path d="M6.22 17.5618C5.26 17.5618 4.42 17.3818 3.7 17.0218C2.98 16.6218 2.4 16.1018 1.96 15.4618C1.56 14.8218 1.24 14.0618 1 13.1818C0.76 12.3018 0.64 11.3818 0.64 10.4218C0.64 8.46177 1.14 6.62177 2.14 4.90177C3.18 3.18177 4.78 1.82177 6.94 0.821769L7.48 1.90177C6.36 2.42177 5.36 3.18177 4.48 4.18177C3.64 5.14177 3.14 6.16177 2.98 7.24177C2.74 8.08177 2.72 8.90177 2.92 9.70177C3.8 8.74177 4.98 8.26177 6.46 8.26177C7.82 8.26177 8.94 8.68177 9.82 9.52177C10.7 10.3218 11.14 11.4418 11.14 12.8818C11.14 14.2818 10.68 15.4218 9.76 16.3018C8.84 17.1418 7.66 17.5618 6.22 17.5618ZM18.58 17.5618C17.62 17.5618 16.78 17.3818 16.06 17.0218C15.34 16.6218 14.76 16.1018 14.32 15.4618C13.92 14.8218 13.6 14.0618 13.36 13.1818C13.12 12.3018 13 11.3818 13 10.4218C13 8.46177 13.5 6.62177 14.5 4.90177C15.54 3.18177 17.14 1.82177 19.3 0.821769L19.84 1.90177C18.72 2.42177 17.72 3.18177 16.84 4.18177C16 5.14177 15.5 6.16177 15.34 7.24177C15.1 8.08177 15.08 8.90177 15.28 9.70177C16.16 8.74177 17.34 8.26177 18.82 8.26177C20.18 8.26177 21.3 8.68177 22.18 9.52177C23.06 10.3218 23.5 11.4418 23.5 12.8818C23.5 14.2818 23.04 15.4218 22.12 16.3018C21.2 17.1418 20.02 17.5618 18.58 17.5618Z" fill="white"/>
</svg>
